Coordinates
version=1
nRows=29
nColumns=24
inDegrees=yes

Units are S.I. units (second, meters, Newtons, ...)
Angles are in degrees.

endheader
time	pelvis_tilt	pelvis_list	pelvis_rotation	pelvis_tx	pelvis_ty	pelvis_tz	hip_flexion_r	hip_adduction_r	hip_rotation_r	knee_angle_r	ankle_angle_r	subtalar_angle_r	mtp_angle_r	hip_flexion_l	hip_adduction_l	hip_rotation_l	knee_angle_l	ankle_angle_l	subtalar_angle_l	mtp_angle_l	lumbar_extension	lumbar_bending	lumbar_rotation
      3.43000000	    -11.08864229	      3.63822805	      1.09405338	     -2.12133224	     -0.00963430	     -0.74032086	     23.20796765	     -7.14303195	     -4.38606578	    -65.92996440	    -19.40254444	    -18.89497192	      0.99052393	     22.36523462	      7.23817014	    -10.04447652	    -17.95190184	      2.32881726	     -8.43733741	      3.47568742	      7.07281362	     -4.74502021	     -1.07677903
      3.43500000	    -11.17278276	      3.56373117	      1.18780814	     -2.11646983	     -0.00896862	     -0.74124458	     24.11957262	     -7.07183394	     -4.36793290	    -66.50962750	    -18.41627860	    -18.81154956	      0.79322167	     21.89980586	      7.28723693	     -9.89048148	    -17.49374082	      2.19031813	     -8.55791724	      4.36065939	      7.10628749	     -4.66016729	     -1.26452319
      3.44000000	    -11.16642614	      3.43060044	      1.31999930	     -2.11150593	     -0.00817269	     -0.74224901	     24.86073950	     -6.96296665	     -4.43270036	    -66.92400116	    -17.54949800	    -18.79461577	      0.99327943	     21.33778109	      7.28431342	     -9.74149499	    -17.09625375	      2.38506141	     -8.38393321	      4.45457391	      7.06306839	     -4.51040592	     -1.49375607
      3.44500000	    -11.17994429	      3.33847532	      1.42264620	     -2.10656982	     -0.00744012	     -0.74320268	     25.63146634	     -6.87864578	     -4.44102597	    -67.28931360	    -16.70123271	    -18.74015922	      1.20262125	     20.78847161	      7.31452058	     -9.60579965	    -16.67385295	      2.53456298	     -8.26851255	      4.51148994	      7.04004423	     -4.40031939	     -1.67653627
      3.45000000	    -11.18633752	      3.25593830	      1.52581718	     -2.10161167	     -0.00671804	     -0.74414530	     26.37425248	     -6.80132557	     -4.44981174	    -67.57282157	    -15.90488428	    -18.70160967	      1.40626636	     20.22191478	      7.35336351	     -9.46701031	    -16.23504448	      2.66952396	     -8.16148772	      4.54961812	      7.01567277	     -4.29846452	     -1.85178049
      3.45500000	    -11.17664095	      3.18109482	      1.62990814	     -2.09663909	     -0.00600245	     -0.74507850	     27.07924563	     -6.73364256	     -4.46673989	    -67.77728001	    -15.15084511	    -18.65742616	      1.61117040	     19.63131906	      7.39740021	     -9.33714354	    -15.78456118	      2.79211108	     -8.05188082	      4.57835009	      6.98175059	     -4.20510534	     -2.03234720
      3.46000000	    -11.14791752	      3.11191167	      1.73899335	     -2.09163000	     -0.00527891	     -0.74599883	     27.73319559	     -6.66704442	     -4.48058823	    -67.89172019	    -14.43663738	    -18.62129856	      1.82324221	     19.01001108	      7.44439881	     -9.21343034	    -15.31806209	      2.89317447	     -7.93359209	      4.60195109	      6.93433467	     -4.11740826	     -2.21566082
      3.46500000	    -11.09710032	      3.04988437	      1.84974146	     -2.08659202	     -0.00457514	     -0.74692147	     28.34000149	     -6.61392207	     -4.51107079	    -67.92801858	    -13.77530727	    -18.61488744	      2.03615652	     18.35670313	      7.49664655	     -9.09243146	    -14.84104923	      3.00743580	     -7.80692526	      4.63594359	      6.86985293	     -4.03416390	     -2.39837717
      3.47000000	    -11.03970311	      2.99514252	      1.96159302	     -2.08154171	     -0.00391713	     -0.74784311	     28.92076977	     -6.57309770	     -4.55696314	    -67.89099264	    -13.17204803	    -18.66039205	      2.22452530	     17.69111414	      7.55408196	     -8.96897515	    -14.35745386	      3.14544223	     -7.66787983	      4.68343397	      6.80393544	     -3.95408298	     -2.56695252
      3.47500000	    -10.93889351	      2.93155228	      2.08396736	     -2.07644850	     -0.00320164	     -0.74875231	     29.40580848	     -6.51781835	     -4.60254386	    -67.74533410	    -12.54851399	    -18.66633519	      2.45879912	     16.97276012	      7.59596856	     -8.86971639	    -13.86521598	      3.23432899	     -7.50378921	      4.74335950	      6.69720777	     -3.87051682	     -2.77314435
      3.48000000	    -10.82505010	      2.87075295	      2.20581945	     -2.07133944	     -0.00252156	     -0.74966208	     29.85320191	     -6.47067088	     -4.66584125	    -67.52022857	    -11.97982809	    -18.73318439	      2.69300091	     16.23447554	      7.63706999	     -8.76816524	    -13.36510786	      3.34155857	     -7.32910431	      4.83124135	      6.58186569	     -3.78394563	     -2.96602832
      3.48500000	    -10.70253224	      2.80346695	      2.33169896	     -2.06621573	     -0.00186359	     -0.75057118	     30.26009285	     -6.41907786	     -4.74256699	    -67.20773613	    -11.43550285	    -18.82706540	      2.92879409	     15.48570832	      7.66690411	     -8.67154806	    -12.86412682	      3.45117784	     -7.13549154	      4.94403207	      6.46118118	     -3.68930381	     -3.16055797
      3.49000000	    -10.56389250	      2.72320465	      2.44627873	     -2.06105838	     -0.00120829	     -0.75146647	     30.61766360	     -6.35045215	     -4.82587340	    -66.80007608	    -10.93695566	    -18.95422673	      3.18875060	     14.71196946	      7.67444105	     -8.58602918	    -12.35020159	      3.55534310	     -6.93042918	      5.10378869	      6.33273350	     -3.57519754	     -3.33895228
      3.49500000	    -10.45767110	      2.65708961	      2.59267773	     -2.05597222	     -0.00066539	     -0.75236520	     30.98984676	     -6.31569946	     -4.93890606	    -66.33430617	    -10.39094277	    -19.08694374	      3.37894850	     13.99995833	      7.69826886	     -8.49657204	    -11.87961139	      3.66837218	     -6.70534883	      5.23487211	      6.22575678	     -3.48710441	     -3.56288047
      3.50000000	    -10.32627452	      2.56918995	      2.72741210	     -2.05085216	     -0.00011125	     -0.75327364	     31.29830329	     -6.25436551	     -5.05592612	    -65.77001833	     -9.87793344	    -19.22887470	      3.55405849	     13.25396543	      7.69259764	     -8.40804241	    -11.39863662	      3.78628694	     -6.47053136	      5.38285273	      6.10031111	     -3.36454291	     -3.76514391
      3.50500000	    -10.20251672	      2.48215348	      2.85791775	     -2.04574383	      0.00039368	     -0.75416482	     31.59216773	     -6.19702947	     -5.18218347	    -65.12876270	     -9.39509041	    -19.39042412	      3.71073848	     12.52180144	      7.68178165	     -8.33772386	    -10.92206527	      3.89684656	     -6.23066685	      5.55615170	      5.98429212	     -3.24106895	     -3.96404029
      3.51000000	    -10.10479405	      2.39185374	      3.01083179	     -2.04070672	      0.00080175	     -0.75506575	     31.88868589	     -6.15098737	     -5.33061741	    -64.41789026	     -8.87667896	    -19.53888240	      3.81787761	     11.84533922	      7.66757914	     -8.24455503	    -10.49052487	      4.02144301	     -5.98935686	      5.70816763	      5.88393705	     -3.12002101	     -4.18724650
      3.51500000	    -10.01673578	      2.30117498	      3.15873559	     -2.03568130	      0.00115328	     -0.75595296	     32.17114264	     -6.10646190	     -5.48489430	    -63.63103956	     -8.37755370	    -19.68991471	      3.87381842	     11.18766283	      7.64878152	     -8.15115287	    -10.07212857	      4.15458864	     -5.75448839	      5.84532284	      5.79557051	     -2.99490047	     -4.40076895
      3.52000000	     -9.94759126	      2.21422500	      3.30707081	     -2.03067558	      0.00142134	     -0.75684383	     32.45371758	     -6.07588284	     -5.65089217	    -62.77861105	     -7.90330191	    -19.83054358	      3.88172984	     10.55832534	      7.63236039	     -8.04507011	     -9.66539502	      4.30464795	     -5.52399325	      5.97011951	      5.72750826	     -2.87288818	     -4.60663786
      3.52500000	     -9.82703457	      2.13476436	      3.45004242	     -2.02568360	      0.00172794	     -0.75771191	     32.64373540	     -6.04673694	     -5.82230648	    -61.83436850	     -7.45576024	    -20.00465117	      3.78287204	      9.88563889	      7.61228885	     -8.01730601	     -9.27254002	      4.40833410	     -5.26530422	      6.15333064	      5.59950878	     -2.75144962	     -4.83511438
      3.53000000	     -9.77484270	      2.05180815	      3.61781499	     -2.02072506	      0.00187685	     -0.75858931	     32.88694390	     -6.03705517	     -6.02226504	    -60.83487905	     -7.00967279	    -20.13775449	      3.62908800	      9.30733069	      7.59343579	     -7.92487349	     -8.91709924	      4.55112080	     -5.03121394	      6.31273946	      5.54157682	     -2.63714993	     -5.07075793
      3.53500000	     -9.78065401	      1.96021949	      3.77739183	     -2.01577402	      0.00190300	     -0.75944367	     33.16818294	     -6.01445264	     -6.20861865	    -59.76056066	     -6.59386099	    -20.25724629	      3.49977581	      8.80989039	      7.56502747	     -7.80296358	     -8.59637054	      4.71447148	     -4.84707736	      6.40567479	      5.54933437	     -2.51703522	     -5.27842901
      3.54000000	     -9.73093749	      1.89182506	      3.96935659	     -2.01086276	      0.00193888	     -0.76034200	     33.35455474	     -6.04460397	     -6.45521805	    -58.61386690	     -6.22403346	    -20.42759789	      3.25247275	      8.26451586	      7.55908614	     -7.69753285	     -8.29526006	      4.86754749	     -4.61799292	      6.50615192	      5.48500677	     -2.41192126	     -5.55117292
      3.54500000	     -9.70698123	      1.82412705	      4.13619279	     -2.00592769	      0.00188895	     -0.76118386	     33.54381210	     -6.05774289	     -6.67984997	    -57.39638117	     -5.88690859	    -20.58804744	      2.90913779	      7.75444905	      7.54698465	     -7.60323158	     -8.01057473	      5.03015832	     -4.41941509	      6.60441039	      5.45632282	     -2.30858504	     -5.78191550
      3.55000000	     -9.69787808	      1.77829027	      4.32008971	     -2.00101066	      0.00175729	     -0.76202312	     33.72267770	     -6.10866553	     -6.93276253	    -56.11937783	     -5.58847042	    -20.75895749	      2.45988686	      7.27356298	      7.55764520	     -7.50256285	     -7.75071518	      5.19172794	     -4.22308732	      6.70084599	      5.43791732	     -2.23353218	     -6.03285452
      3.55500000	     -9.62816942	      1.77200184	      4.42665247	     -1.99605149	      0.00161349	     -0.76273089	     33.82962076	     -6.14494101	     -7.13929130	    -54.82746848	     -5.16635300	    -20.78544905	      1.07930490	      6.71422664	      7.59007101	     -7.53607115	     -7.46587826	      5.32640483	     -4.02238995	      6.88895386	      5.35891669	     -2.18960686	     -6.18510100
      3.56000000	     -9.75581275	      1.74943259	      4.63379943	     -1.99115105	      0.00119064	     -0.76356332	     34.10635038	     -6.24282202	     -7.40494955	    -53.42484194	     -4.98093469	    -20.97359010	      0.79452273	      6.41560476	      7.63369850	     -7.35941518	     -7.27704678	      5.49910835	     -3.89640857	      6.95144633	      5.48574945	     -2.15331550	     -6.45360360
      3.56500000	     -9.67776618	      1.75610943	      4.77714166	     -1.98619294	      0.00094197	     -0.76429811	     34.13007202	     -6.31867002	     -7.68451650	    -51.98180764	     -4.68043056	    -21.05792731	     -0.55318262	      5.86431783	      7.68095262	     -7.30924421	     -7.03818764	      5.65591524	     -3.73903089	      7.03557114	      5.39432006	     -2.12377622	     -6.65341963
      3.57000000	     -9.84191306	      1.75064045	      4.98641249	     -1.98127185	      0.00036821	     -0.76512208	     34.38463838	     -6.44498379	     -7.99596727	    -50.44568625	     -4.60708063	    -21.25706469	     -0.93313116	      5.62593770	      7.74167885	     -7.15269028	     -6.89348693	      5.83603989	     -3.63394061	      7.09115508	      5.56278901	     -2.10523189	     -6.91683661
